<svg width="139" height="40" viewBox="0 0 139 40" fill="none" xmlns="http://www.w3.org/2000/svg">
<path d="M31.3195 16.25C31.3195 22.803 27.4645 28.5781 23.5054 32.7687C21.5354 34.8538 19.5634 36.5214 18.0833 37.6677C17.3438 38.2404 16.7286 38.682 16.2998 38.9793C16.1864 39.0579 16.0861 39.1264 16 39.1846C15.9139 39.1264 15.8136 39.0579 15.7002 38.9793C15.2714 38.682 14.6562 38.2404 13.9167 37.6677C12.4366 36.5214 10.4646 34.8538 8.49464 32.7687C4.53548 28.5781 0.680488 22.803 0.680488 16.25C0.680488 7.97694 7.55841 0.680488 16 0.680488C24.4416 0.680488 31.3195 7.97694 31.3195 16.25Z" fill="#ED6B48" stroke="#2A2A2A" stroke-width="1.36098"/>
<ellipse cx="16" cy="15.6301" rx="9.6" ry="9.40741" fill="#FFCD29"/>
<path d="M12.8431 7.45074L17.0563 6.81494C17.1643 8.40445 16.4729 12.0285 12.8431 13.8088C9.21333 15.589 9.38618 20.0608 9.92633 22.0742L8.30588 20.1668L7.33361 18.2594L7.00952 15.3983L7.98179 11.9014L9.92633 9.04025L12.8431 7.45074Z" fill="#EFB700"/>
<path d="M24.9195 15.6301C24.9195 20.4369 20.9392 24.357 16 24.357C11.0608 24.357 7.08051 20.4369 7.08051 15.6301C7.08051 10.8233 11.0608 6.90314 16 6.90314C20.9392 6.90314 24.9195 10.8233 24.9195 15.6301Z" stroke="#2A2A2A" stroke-width="1.36098"/>
<path d="M6.40002 24.9934L10.8308 17.7631L12.8985 19.2092L17.6246 11.1113L25.6 24.9934C25.6 24.9934 22.5119 28.1484 16 28.1484C14.725 28.1484 13.5812 28.0274 12.5662 27.8329C11.097 27.5513 9.89744 27.1155 8.96002 26.6691C7.23756 25.849 6.40002 24.9934 6.40002 24.9934Z" fill="white"/>
<path d="M16 18.3762L17.6 11.1113V18.0603L19.2 20.5872L12.8 27.8521L16.64 20.5872L16 18.3762Z" fill="#D9D9D9"/>
<path d="M10.819 21.5615L11.7333 18.3706L9.59998 19.647L10.819 23.476L9.59998 26.6669L12.0381 23.7951L10.819 21.5615Z" fill="#D9D9D9"/>
<path d="M14.3238 19.4226L15.8476 14.9634L12.4952 21.3337L14.3238 19.4226Z" fill="#D9D9D9"/>
<path d="M10.8308 17.7631L6.40002 24.9934C6.40002 24.9934 7.23756 25.849 8.96002 26.6691M10.8308 17.7631L12.8985 19.2092M10.8308 17.7631L9.94464 21.5229L10.8308 23.5473L8.96002 26.6691M12.8985 19.2092L17.6246 11.1113M12.8985 19.2092L11.7169 21.2336M17.6246 11.1113L25.6 24.9934C25.6 24.9934 22.5119 28.1484 16 28.1484C14.725 28.1484 13.5812 28.0274 12.5662 27.8329M17.6246 11.1113L15.8523 18.3416L16.4431 20.366L12.5662 27.8329M12.5662 27.8329C11.097 27.5513 9.89744 27.1155 8.96002 26.6691" stroke="#2A2A2A" stroke-width="1.36098"/>
<path d="M46.375 5.625V17H43.6328V5.625H46.375ZM49.7969 5.625V7.74219H40.2891V5.625H49.7969ZM52.4766 10.6406V17H49.8438V8.54688H52.3047L52.4766 10.6406ZM54.9766 8.48438L54.9297 10.9297C54.8255 10.9193 54.6849 10.9062 54.5078 10.8906C54.3307 10.875 54.1823 10.8672 54.0625 10.8672C53.7552 10.8672 53.4896 10.9036 53.2656 10.9766C53.0469 11.0443 52.8646 11.1484 52.7188 11.2891C52.5781 11.4245 52.474 11.5964 52.4062 11.8047C52.3438 12.013 52.3151 12.2552 52.3203 12.5312L51.8438 12.2188C51.8438 11.651 51.8984 11.1354 52.0078 10.6719C52.1224 10.2031 52.2839 9.79948 52.4922 9.46094C52.7005 9.11719 52.9531 8.85417 53.25 8.67188C53.5469 8.48438 53.8802 8.39062 54.25 8.39062C54.3802 8.39062 54.5078 8.39844 54.6328 8.41406C54.763 8.42969 54.8776 8.45312 54.9766 8.48438ZM59.5391 14.875V11.3906C59.5391 11.151 59.5052 10.9453 59.4375 10.7734C59.3698 10.6016 59.263 10.4688 59.1172 10.375C58.9714 10.276 58.776 10.2266 58.5312 10.2266C58.3333 10.2266 58.1641 10.2604 58.0234 10.3281C57.8828 10.3958 57.776 10.4974 57.7031 10.6328C57.6302 10.7682 57.5938 10.9401 57.5938 11.1484H54.9609C54.9609 10.7578 55.0469 10.3958 55.2188 10.0625C55.3958 9.72396 55.6458 9.42969 55.9688 9.17969C56.2969 8.92969 56.6875 8.73698 57.1406 8.60156C57.599 8.46094 58.1094 8.39062 58.6719 8.39062C59.3438 8.39062 59.9427 8.5026 60.4688 8.72656C61 8.95052 61.4193 9.28646 61.7266 9.73438C62.0339 10.1771 62.1875 10.7344 62.1875 11.4062V14.8672C62.1875 15.4193 62.2188 15.8385 62.2812 16.125C62.3438 16.4062 62.4323 16.6536 62.5469 16.8672V17H59.9062C59.7812 16.7396 59.6875 16.4219 59.625 16.0469C59.5677 15.6667 59.5391 15.276 59.5391 14.875ZM59.8594 11.8359L59.875 13.2422H58.7109C58.4661 13.2422 58.2578 13.276 58.0859 13.3438C57.9193 13.4115 57.7839 13.5052 57.6797 13.625C57.5807 13.7396 57.5078 13.8698 57.4609 14.0156C57.4193 14.1615 57.3984 14.3151 57.3984 14.4766C57.3984 14.6328 57.4349 14.7734 57.5078 14.8984C57.5859 15.0182 57.6901 15.112 57.8203 15.1797C57.9505 15.2474 58.0964 15.2812 58.2578 15.2812C58.5495 15.2812 58.7969 15.2266 59 15.1172C59.2083 15.0026 59.3672 14.8646 59.4766 14.7031C59.5859 14.5417 59.6406 14.3906 59.6406 14.25L60.2188 15.3281C60.1146 15.5365 59.9948 15.7474 59.8594 15.9609C59.7292 16.1745 59.5651 16.3724 59.3672 16.5547C59.1745 16.7318 58.9375 16.8776 58.6562 16.9922C58.375 17.1016 58.0339 17.1562 57.6328 17.1562C57.112 17.1562 56.6328 17.0495 56.1953 16.8359C55.763 16.6224 55.4167 16.3255 55.1562 15.9453C54.8958 15.5599 54.7656 15.1172 54.7656 14.6172C54.7656 14.1797 54.8438 13.7891 55 13.4453C55.1615 13.1016 55.4036 12.8099 55.7266 12.5703C56.0495 12.3307 56.4609 12.1484 56.9609 12.0234C57.4609 11.8984 58.0495 11.8359 58.7266 11.8359H59.8594ZM66.7188 15.125C66.9635 15.125 67.1719 15.0807 67.3438 14.9922C67.5208 14.8984 67.6536 14.7682 67.7422 14.6016C67.8359 14.4297 67.8802 14.224 67.875 13.9844H70.3516C70.3568 14.6198 70.2005 15.1771 69.8828 15.6562C69.5703 16.1302 69.1432 16.5 68.6016 16.7656C68.0651 17.026 67.4583 17.1562 66.7812 17.1562C66.1198 17.1562 65.5417 17.0495 65.0469 16.8359C64.5521 16.6172 64.138 16.3151 63.8047 15.9297C63.4766 15.5391 63.2292 15.0833 63.0625 14.5625C62.901 14.0417 62.8203 13.4766 62.8203 12.8672V12.6875C62.8203 12.0781 62.901 11.513 63.0625 10.9922C63.2292 10.4661 63.4766 10.0104 63.8047 9.625C64.138 9.23438 64.5495 8.93229 65.0391 8.71875C65.5339 8.5 66.1094 8.39062 66.7656 8.39062C67.4688 8.39062 68.0885 8.52344 68.625 8.78906C69.1667 9.05469 69.5911 9.4401 69.8984 9.94531C70.2057 10.4505 70.3568 11.0625 70.3516 11.7812H67.875C67.8802 11.526 67.8411 11.2969 67.7578 11.0938C67.6745 10.8906 67.5443 10.7292 67.3672 10.6094C67.1953 10.4844 66.974 10.4219 66.7031 10.4219C66.4323 10.4219 66.2135 10.4818 66.0469 10.6016C65.8802 10.7214 65.7526 10.888 65.6641 11.1016C65.5807 11.3099 65.5234 11.5495 65.4922 11.8203C65.4661 12.0911 65.4531 12.3802 65.4531 12.6875V12.8672C65.4531 13.1797 65.4661 13.474 65.4922 13.75C65.5234 14.0208 65.5833 14.2604 65.6719 14.4688C65.7604 14.6719 65.888 14.8333 66.0547 14.9531C66.2214 15.0677 66.4427 15.125 66.7188 15.125ZM73.6328 4.99219V17H71V4.99219H73.6328ZM79.0391 8.54688L75.3672 12.8516L73.4453 14.7734L72.2969 13.1016L73.8984 11.0156L75.8828 8.54688H79.0391ZM76.2188 17L73.9609 13.1484L75.9062 11.7656L79.2344 17H76.2188ZM82.0078 8.54688V17H79.3672V8.54688H82.0078ZM79.2109 6.36719C79.2109 5.99219 79.3464 5.6849 79.6172 5.44531C79.888 5.20573 80.2396 5.08594 80.6719 5.08594C81.1042 5.08594 81.4557 5.20573 81.7266 5.44531C81.9974 5.6849 82.1328 5.99219 82.1328 6.36719C82.1328 6.74219 81.9974 7.04948 81.7266 7.28906C81.4557 7.52865 81.1042 7.64844 80.6719 7.64844C80.2396 7.64844 79.888 7.52865 79.6172 7.28906C79.3464 7.04948 79.2109 6.74219 79.2109 6.36719ZM85.7188 10.3516V17H83.0859V8.54688H85.5547L85.7188 10.3516ZM85.4062 12.4844L84.7891 12.5C84.7891 11.8542 84.8672 11.2786 85.0234 10.7734C85.1797 10.263 85.401 9.83073 85.6875 9.47656C85.974 9.1224 86.3151 8.85417 86.7109 8.67188C87.112 8.48438 87.5573 8.39062 88.0469 8.39062C88.4375 8.39062 88.7943 8.44792 89.1172 8.5625C89.4453 8.67708 89.7266 8.86198 89.9609 9.11719C90.2005 9.3724 90.3828 9.71094 90.5078 10.1328C90.638 10.5495 90.7031 11.0651 90.7031 11.6797V17H88.0547V11.6719C88.0547 11.3333 88.0078 11.0755 87.9141 10.8984C87.8203 10.7161 87.6849 10.5911 87.5078 10.5234C87.3307 10.4557 87.1146 10.4219 86.8594 10.4219C86.5885 10.4219 86.3594 10.474 86.1719 10.5781C85.9844 10.6823 85.8333 10.8281 85.7188 11.0156C85.6094 11.1979 85.5286 11.4141 85.4766 11.6641C85.4297 11.9141 85.4062 12.1875 85.4062 12.4844ZM96.9766 8.54688H99.3672V16.6719C99.3672 17.4531 99.1875 18.1146 98.8281 18.6562C98.4688 19.2031 97.9661 19.6172 97.3203 19.8984C96.6797 20.1849 95.9297 20.3281 95.0703 20.3281C94.6901 20.3281 94.3021 20.2786 93.9062 20.1797C93.5104 20.0859 93.1406 19.9453 92.7969 19.7578C92.4531 19.5703 92.1641 19.3385 91.9297 19.0625L93.0312 17.5156C93.2448 17.7552 93.513 17.9583 93.8359 18.125C94.1589 18.2969 94.5391 18.3828 94.9766 18.3828C95.3568 18.3828 95.6745 18.3151 95.9297 18.1797C96.1901 18.0443 96.388 17.8464 96.5234 17.5859C96.6589 17.3307 96.7266 17.0208 96.7266 16.6562V10.5469L96.9766 8.54688ZM91.3594 12.875V12.7109C91.3594 12.0703 91.4375 11.487 91.5938 10.9609C91.7552 10.4297 91.9844 9.97396 92.2812 9.59375C92.5833 9.20833 92.9479 8.91146 93.375 8.70312C93.8021 8.49479 94.2839 8.39062 94.8203 8.39062C95.3984 8.39062 95.8724 8.5026 96.2422 8.72656C96.6172 8.94531 96.9167 9.2526 97.1406 9.64844C97.3698 10.0443 97.5469 10.5078 97.6719 11.0391C97.8021 11.5651 97.9115 12.1328 98 12.7422V12.9375C97.9115 13.5104 97.7891 14.0521 97.6328 14.5625C97.4818 15.0677 97.2839 15.5156 97.0391 15.9062C96.7943 16.2969 96.487 16.6042 96.1172 16.8281C95.7526 17.0469 95.3151 17.1562 94.8047 17.1562C94.2734 17.1562 93.7943 17.0495 93.3672 16.8359C92.9453 16.6224 92.5833 16.3229 92.2812 15.9375C91.9844 15.5521 91.7552 15.099 91.5938 14.5781C91.4375 14.0573 91.3594 13.4896 91.3594 12.875ZM93.9922 12.7109V12.875C93.9922 13.1927 94.0208 13.487 94.0781 13.7578C94.1406 14.0286 94.2344 14.2682 94.3594 14.4766C94.4844 14.6797 94.638 14.8385 94.8203 14.9531C95.0078 15.0677 95.2266 15.125 95.4766 15.125C95.8568 15.125 96.1641 15.0443 96.3984 14.8828C96.6328 14.7214 96.8021 14.4922 96.9062 14.1953C97.0104 13.8984 97.0547 13.5495 97.0391 13.1484V12.5312C97.0495 12.1875 97.026 11.8854 96.9688 11.625C96.9115 11.3594 96.8203 11.138 96.6953 10.9609C96.5755 10.7839 96.4141 10.651 96.2109 10.5625C96.013 10.4688 95.7734 10.4219 95.4922 10.4219C95.2474 10.4219 95.0312 10.4792 94.8438 10.5938C94.6562 10.7083 94.5 10.8698 94.375 11.0781C94.25 11.2812 94.1536 11.5234 94.0859 11.8047C94.0234 12.0807 93.9922 12.3828 93.9922 12.7109ZM46.375 21.625V33H43.6328V21.625H46.375ZM49.7969 21.625V23.7422H40.2891V21.625H49.7969ZM52.4766 26.6406V33H49.8438V24.5469H52.3047L52.4766 26.6406ZM54.9766 24.4844L54.9297 26.9297C54.8255 26.9193 54.6849 26.9062 54.5078 26.8906C54.3307 26.875 54.1823 26.8672 54.0625 26.8672C53.7552 26.8672 53.4896 26.9036 53.2656 26.9766C53.0469 27.0443 52.8646 27.1484 52.7188 27.2891C52.5781 27.4245 52.474 27.5964 52.4062 27.8047C52.3438 28.013 52.3151 28.2552 52.3203 28.5312L51.8438 28.2188C51.8438 27.651 51.8984 27.1354 52.0078 26.6719C52.1224 26.2031 52.2839 25.7995 52.4922 25.4609C52.7005 25.1172 52.9531 24.8542 53.25 24.6719C53.5469 24.4844 53.8802 24.3906 54.25 24.3906C54.3802 24.3906 54.5078 24.3984 54.6328 24.4141C54.763 24.4297 54.8776 24.4531 54.9766 24.4844ZM59.5391 30.875V27.3906C59.5391 27.151 59.5052 26.9453 59.4375 26.7734C59.3698 26.6016 59.263 26.4688 59.1172 26.375C58.9714 26.276 58.776 26.2266 58.5312 26.2266C58.3333 26.2266 58.1641 26.2604 58.0234 26.3281C57.8828 26.3958 57.776 26.4974 57.7031 26.6328C57.6302 26.7682 57.5938 26.9401 57.5938 27.1484H54.9609C54.9609 26.7578 55.0469 26.3958 55.2188 26.0625C55.3958 25.724 55.6458 25.4297 55.9688 25.1797C56.2969 24.9297 56.6875 24.737 57.1406 24.6016C57.599 24.4609 58.1094 24.3906 58.6719 24.3906C59.3438 24.3906 59.9427 24.5026 60.4688 24.7266C61 24.9505 61.4193 25.2865 61.7266 25.7344C62.0339 26.1771 62.1875 26.7344 62.1875 27.4062V30.8672C62.1875 31.4193 62.2188 31.8385 62.2812 32.125C62.3438 32.4062 62.4323 32.6536 62.5469 32.8672V33H59.9062C59.7812 32.7396 59.6875 32.4219 59.625 32.0469C59.5677 31.6667 59.5391 31.276 59.5391 30.875ZM59.8594 27.8359L59.875 29.2422H58.7109C58.4661 29.2422 58.2578 29.276 58.0859 29.3438C57.9193 29.4115 57.7839 29.5052 57.6797 29.625C57.5807 29.7396 57.5078 29.8698 57.4609 30.0156C57.4193 30.1615 57.3984 30.3151 57.3984 30.4766C57.3984 30.6328 57.4349 30.7734 57.5078 30.8984C57.5859 31.0182 57.6901 31.112 57.8203 31.1797C57.9505 31.2474 58.0964 31.2812 58.2578 31.2812C58.5495 31.2812 58.7969 31.2266 59 31.1172C59.2083 31.0026 59.3672 30.8646 59.4766 30.7031C59.5859 30.5417 59.6406 30.3906 59.6406 30.25L60.2188 31.3281C60.1146 31.5365 59.9948 31.7474 59.8594 31.9609C59.7292 32.1745 59.5651 32.3724 59.3672 32.5547C59.1745 32.7318 58.9375 32.8776 58.6562 32.9922C58.375 33.1016 58.0339 33.1562 57.6328 33.1562C57.112 33.1562 56.6328 33.0495 56.1953 32.8359C55.763 32.6224 55.4167 32.3255 55.1562 31.9453C54.8958 31.5599 54.7656 31.1172 54.7656 30.6172C54.7656 30.1797 54.8438 29.7891 55 29.4453C55.1615 29.1016 55.4036 28.8099 55.7266 28.5703C56.0495 28.3307 56.4609 28.1484 56.9609 28.0234C57.4609 27.8984 58.0495 27.8359 58.7266 27.8359H59.8594ZM66.0703 31.1953L67.7344 24.5469H70.5078L67.7422 33H66.1016L66.0703 31.1953ZM65.0859 24.5469L66.7266 31.1953L66.7109 33H65.0625L62.3047 24.5469H65.0859ZM74.7734 33.1562C74.0859 33.1562 73.4714 33.0495 72.9297 32.8359C72.388 32.6172 71.9297 32.3177 71.5547 31.9375C71.1849 31.5573 70.901 31.1198 70.7031 30.625C70.5104 30.1302 70.4141 29.6068 70.4141 29.0547V28.7578C70.4141 28.138 70.5 27.5651 70.6719 27.0391C70.8438 26.5078 71.099 26.0443 71.4375 25.6484C71.776 25.2526 72.2005 24.9453 72.7109 24.7266C73.2214 24.5026 73.8151 24.3906 74.4922 24.3906C75.0911 24.3906 75.6276 24.487 76.1016 24.6797C76.5755 24.8724 76.9766 25.1484 77.3047 25.5078C77.638 25.8672 77.8906 26.3021 78.0625 26.8125C78.2396 27.3229 78.3281 27.8958 78.3281 28.5312V29.6016H71.4219V27.9531H75.7578V27.75C75.763 27.4688 75.7135 27.2292 75.6094 27.0312C75.5104 26.8333 75.3646 26.6823 75.1719 26.5781C74.9792 26.474 74.7448 26.4219 74.4688 26.4219C74.1823 26.4219 73.9453 26.4844 73.7578 26.6094C73.5755 26.7344 73.4323 26.9062 73.3281 27.125C73.2292 27.3385 73.1589 27.5859 73.1172 27.8672C73.0755 28.1484 73.0547 28.4453 73.0547 28.7578V29.0547C73.0547 29.3672 73.0964 29.651 73.1797 29.9062C73.2682 30.1615 73.3932 30.3802 73.5547 30.5625C73.7214 30.7396 73.9193 30.8776 74.1484 30.9766C74.3828 31.0755 74.6484 31.125 74.9453 31.125C75.3047 31.125 75.6589 31.0573 76.0078 30.9219C76.3568 30.7865 76.6562 30.5625 76.9062 30.25L78.1016 31.6719C77.9297 31.9167 77.6849 32.1536 77.3672 32.3828C77.0547 32.612 76.6797 32.7995 76.2422 32.9453C75.8047 33.0859 75.3151 33.1562 74.7734 33.1562ZM81.6797 21V33H79.0391V21H81.6797Z" fill="black"/>
</svg>
